<svg xmlns="http://www.w3.org/2000/svg" viewBox="0 0 512 512">
  <defs>
    <linearGradient id="gradient" x1="0%" y1="0%" x2="100%" y2="100%">
      <stop offset="0%" style="stop-color:#6366f1;stop-opacity:1" />
      <stop offset="33%" style="stop-color:#8b5cf6;stop-opacity:1" />
      <stop offset="66%" style="stop-color:#06b6d4;stop-opacity:1" />
      <stop offset="100%" style="stop-color:#10b981;stop-opacity:1" />
    </linearGradient>
    <filter id="shadow" x="-10%" y="-10%" width="120%" height="120%">
      <feDropShadow dx="0" dy="8" stdDeviation="16" flood-color="rgba(99, 102, 241, 0.3)"/>
    </filter>
    <filter id="glow" x="-20%" y="-20%" width="140%" height="140%">
      <feGaussianBlur stdDeviation="4" result="coloredBlur"/>
      <feMerge> 
        <feMergeNode in="coloredBlur"/>
        <feMergeNode in="SourceGraphic"/>
      </feMerge>
    </filter>
  </defs>
  
  <!-- Main background -->
  <rect x="32" y="32" width="448" height="448" rx="80" ry="80" 
        fill="url(#gradient)" 
        filter="url(#shadow)"/>
  
  <!-- Inner highlight -->
  <rect x="48" y="48" width="416" height="416" rx="64" ry="64" 
        fill="none" 
        stroke="rgba(255, 255, 255, 0.2)" 
        stroke-width="4"/>
  
  <!-- Background pattern -->
  <rect x="64" y="64" width="384" height="384" rx="48" ry="48" 
        fill="rgba(255, 255, 255, 0.05)"/>
  
  <!-- Letter C -->
  <path d="M 160 140 Q 120 140 120 256 Q 120 372 160 372 Q 200 372 220 348" 
        stroke="#ffffff" 
        stroke-width="32" 
        fill="none" 
        stroke-linecap="round"
        filter="url(#glow)"/>
  
  <!-- Letter G -->
  <path d="M 260 140 Q 340 140 340 256 Q 340 372 300 372 L 260 372 L 260 256 L 320 256" 
        stroke="#ffffff" 
        stroke-width="32" 
        fill="none" 
        stroke-linecap="round"
        filter="url(#glow)"/>
  
  <!-- Decorative elements -->
  <circle cx="140" cy="100" r="6" fill="rgba(255, 255, 255, 0.6)"/>
  <circle cx="320" cy="100" r="6" fill="rgba(255, 255, 255, 0.6)"/>
  <circle cx="140" cy="412" r="6" fill="rgba(255, 255, 255, 0.6)"/>
  <circle cx="320" cy="412" r="6" fill="rgba(255, 255, 255, 0.6)"/>
  
  <!-- Subtle geometric patterns -->
  <rect x="100" y="420" width="60" height="4" rx="2" fill="rgba(255, 255, 255, 0.3)"/>
  <rect x="280" y="420" width="60" height="4" rx="2" fill="rgba(255, 255, 255, 0.3)"/>
</svg>
